<svg xmlns="http://www.w3.org/2000/svg" viewBox="0 0 500 500"><g id="freepik--background-complete--inject-44"><rect y="382.4" width="500" height="0.25" style="fill:#ebebeb"></rect><rect x="416.78" y="398.49" width="33.12" height="0.25" style="fill:#ebebeb"></rect><rect x="322.53" y="401.21" width="8.69" height="0.25" style="fill:#ebebeb"></rect><rect x="396.59" y="389.21" width="19.19" height="0.25" style="fill:#ebebeb"></rect><rect x="52.46" y="390.89" width="43.19" height="0.25" style="fill:#ebebeb"></rect><rect x="104.56" y="390.89" width="6.33" height="0.25" style="fill:#ebebeb"></rect><rect x="131.47" y="395.11" width="93.68" height="0.25" style="fill:#ebebeb"></rect><path d="M237,337.8H43.91a5.71,5.71,0,0,1-5.7-5.71V60.66A5.71,5.71,0,0,1,43.91,55H237a5.71,5.71,0,0,1,5.71,5.71V332.09A5.71,5.71,0,0,1,237,337.8ZM43.91,55.2a5.46,5.46,0,0,0-5.45,5.46V332.09a5.46,5.46,0,0,0,5.45,5.46H237a5.47,5.47,0,0,0,5.46-5.46V60.66A5.47,5.47,0,0,0,237,55.2Z" style="fill:#ebebeb"></path><path d="M453.31,337.8H260.21a5.72,5.72,0,0,1-5.71-5.71V60.66A5.72,5.72,0,0,1,260.21,55h193.1A5.71,5.71,0,0,1,459,60.66V332.09A5.71,5.71,0,0,1,453.31,337.8ZM260.21,55.2a5.47,5.47,0,0,0-5.46,5.46V332.09a5.47,5.47,0,0,0,5.46,5.46h193.1a5.47,5.47,0,0,0,5.46-5.46V60.66a5.47,5.47,0,0,0-5.46-5.46Z" style="fill:#ebebeb"></path><rect x="90.32" y="159.87" width="150.21" height="220.23" style="fill:#f0f0f0"></rect><rect x="95.63" y="166.8" width="139.59" height="40.67" style="fill:#e0e0e0"></rect><rect x="95.63" y="173.38" width="7.93" height="34.09" style="fill:#ebebeb"></rect><rect x="133.97" y="173.38" width="7.93" height="34.09" style="fill:#ebebeb"></rect><rect x="180.45" y="172.96" width="7.93" height="34.09" transform="translate(-29.59 34.08) rotate(-9.78)" style="fill:#ebebeb"></rect><rect x="105.45" y="177.87" width="7.93" height="29.6" style="fill:#ebebeb"></rect><rect x="123.68" y="177.87" width="7.93" height="29.6" style="fill:#ebebeb"></rect><rect x="169.68" y="177.87" width="7.93" height="29.6" style="fill:#ebebeb"></rect><rect x="147.69" y="177.37" width="7.93" height="29.6" transform="translate(-38.07 37.47) rotate(-12.53)" style="fill:#ebebeb"></rect><rect x="116.27" y="171.69" width="3.96" height="35.78" style="fill:#ebebeb"></rect><rect x="163.44" y="171.69" width="3.96" height="35.78" style="fill:#ebebeb"></rect><rect x="95.63" y="213.91" width="139.59" height="40.67" transform="translate(330.84 468.5) rotate(180)" style="fill:#e0e0e0"></rect><rect x="227.29" y="220.5" width="7.93" height="34.09" transform="translate(462.5 475.08) rotate(180)" style="fill:#ebebeb"></rect><rect x="188.94" y="220.5" width="7.93" height="34.09" transform="translate(385.82 475.08) rotate(180)" style="fill:#ebebeb"></rect><rect x="142.46" y="220.07" width="7.93" height="34.09" transform="translate(250.46 495.65) rotate(-170.22)" style="fill:#ebebeb"></rect><rect x="217.46" y="224.99" width="7.93" height="29.6" transform="translate(442.85 479.57) rotate(180)" style="fill:#ebebeb"></rect><rect x="199.23" y="224.99" width="7.93" height="29.6" transform="translate(406.4 479.57) rotate(180)" style="fill:#ebebeb"></rect><rect x="153.23" y="224.99" width="7.93" height="29.6" transform="translate(314.39 479.57) rotate(180)" style="fill:#ebebeb"></rect><rect x="175.22" y="224.48" width="7.93" height="29.6" transform="translate(302.21 511.73) rotate(-167.47)" style="fill:#ebebeb"></rect><rect x="210.6" y="218.8" width="3.96" height="35.78" transform="translate(425.17 473.39) rotate(180)" style="fill:#ebebeb"></rect><rect x="163.44" y="218.8" width="3.96" height="35.78" transform="translate(330.84 473.39) rotate(180)" style="fill:#ebebeb"></rect><rect x="95.63" y="220.5" width="7.93" height="34.09" style="fill:#ebebeb"></rect><rect x="105.45" y="224.99" width="7.93" height="29.6" style="fill:#ebebeb"></rect><rect x="123.68" y="224.99" width="7.93" height="29.6" style="fill:#ebebeb"></rect><rect x="116.27" y="218.8" width="3.96" height="35.78" style="fill:#ebebeb"></rect><rect x="95.63" y="261.03" width="139.59" height="40.67" style="fill:#e0e0e0"></rect><rect x="175.75" y="267.61" width="7.93" height="34.09" style="fill:#ebebeb"></rect><rect x="222.23" y="267.18" width="7.93" height="34.09" transform="translate(-44.99 42.55) rotate(-9.78)" style="fill:#ebebeb"></rect><rect x="147.23" y="272.1" width="7.93" height="29.6" style="fill:#ebebeb"></rect><rect x="165.45" y="272.1" width="7.93" height="29.6" style="fill:#ebebeb"></rect><rect x="211.46" y="272.1" width="7.93" height="29.6" style="fill:#ebebeb"></rect><rect x="189.47" y="271.59" width="7.93" height="29.6" transform="translate(-57.52 48.78) rotate(-12.53)" style="fill:#ebebeb"></rect><rect x="158.05" y="265.92" width="3.96" height="35.78" style="fill:#ebebeb"></rect><rect x="205.22" y="265.92" width="3.96" height="35.78" style="fill:#ebebeb"></rect><rect x="131" y="267.18" width="7.93" height="34.09" transform="translate(-46.31 27.05) rotate(-9.78)" style="fill:#ebebeb"></rect><rect x="120.23" y="272.1" width="7.93" height="29.6" style="fill:#ebebeb"></rect><rect x="98.24" y="271.59" width="7.93" height="29.6" transform="translate(-59.69 28.99) rotate(-12.53)" style="fill:#ebebeb"></rect><rect x="113.99" y="265.92" width="3.96" height="35.78" style="fill:#ebebeb"></rect><rect x="64.4" y="159.87" width="25.91" height="220.8" transform="translate(154.72 540.53) rotate(180)" style="fill:#e0e0e0"></rect><path d="M328.44,374.91h-22L318,280.64a8.42,8.42,0,0,1,8.12-7.23h96.07l-14.09,101.5Z" style="fill:#f5f5f5"></path><path d="M398.26,374.91h22l11.58-94.27a6.26,6.26,0,0,0-6.34-7.23H418a8.41,8.41,0,0,0-8.11,7.23Z" style="fill:#f0f0f0"></path><path d="M390.15,374.79l4-45.59a4.34,4.34,0,0,1,3.78-3.93l1.64-.21a5.84,5.84,0,0,0,5.07-5.28l.73-8.31a5.83,5.83,0,0,0-5.81-6.34h36.8a5.84,5.84,0,0,1,5.81,6.34l-.73,8.31a5.84,5.84,0,0,1-5.07,5.28l-1.64.21a4.34,4.34,0,0,0-3.78,3.93l-4,45.59a6.44,6.44,0,0,1-6.41,5.88h-36.8A6.43,6.43,0,0,0,390.15,374.79Z" style="fill:#e6e6e6"></path><path d="M288.89,317.78a13.85,13.85,0,0,0-13.8-12.65h32a13.86,13.86,0,0,1,13.81,12.65l3.16,36.15h-32Z" style="fill:#e6e6e6"></path><path d="M260.86,305.13h14.23a13.85,13.85,0,0,1,13.8,12.65l3.17,36.15h76.29l3.16-36.15a13.86,13.86,0,0,1,13.81-12.65h14.23a5.83,5.83,0,0,1,5.81,6.34l-.73,8.31a5.84,5.84,0,0,1-5.07,5.28l-1.64.21a4.34,4.34,0,0,0-3.78,3.93l-4,45.59a6.43,6.43,0,0,1-6.41,5.88H276.67a6.44,6.44,0,0,1-6.42-5.88l-4-45.59a4.33,4.33,0,0,0-3.77-3.93l-1.65-.21a5.84,5.84,0,0,1-5.07-5.28l-.72-8.31A5.83,5.83,0,0,1,260.86,305.13Z" style="fill:#f0f0f0"></path><polygon points="426.8 125.11 393.57 105.77 367.97 105.77 334.19 124.19 334.19 249.48 426.8 249.48 426.8 125.11" style="fill:#e0e0e0"></polygon><path d="M333.24,125.1l.95-.91A65.8,65.8,0,0,1,380,105.77h0a65.82,65.82,0,0,1,45.83,18.42l.95.91V249.48H333.24Zm87.35,2.67a60,60,0,0,0-81.15,0v115.5h81.15Z" style="fill:#fafafa"></path><polygon points="382.35 244.02 377.69 244.02 377.69 202.44 338.27 202.44 338.27 197.78 377.69 197.78 377.69 155.25 338.27 155.25 338.27 150.6 377.69 150.6 377.69 111.18 382.35 111.18 382.35 150.6 421.77 150.6 421.77 155.25 382.35 155.25 382.35 197.78 421.77 197.78 421.77 202.44 382.35 202.44 382.35 244.02" style="fill:#f0f0f0"></polygon><path d="M330.13,123.84l.91-.91a69.34,69.34,0,0,1,98,0l.9.91V252.58H330.13Zm93.57,2.59a63.13,63.13,0,0,0-87.36,0V246.37H423.7Z" style="fill:#f0f0f0"></path><path d="M92.22,148.86s-1.17-7.72,4.47-12.68,5.14-7.9,3.53-8.28-3.1,4.57-5.58,5.93c0,0-.07-7.06,2.44-9.66s3.84-9.3,1.44-9.42-2.64,4-3.13,6.89-3.17,7-3.17,7-.52-6.32-2.14-8.92,2.71-8.54,1-11.15-4.64,2.36-4.39,7.93,4,11.52,3.09,17.34c0,0-1.63-4.09-3.11-4.46s-3-3.07-4-4.07-2.22,2.46,0,5.68,7.93,11.84,7.06,18.8Z" style="fill:#e6e6e6"></path><path d="M95.59,145.35l1.85,11.58a5.89,5.89,0,0,1-5.82,6.81h-2a5.89,5.89,0,0,1-5.82-6.81l1.85-11.58Z" style="fill:#e6e6e6"></path><rect x="206.37" y="136.77" width="5.75" height="24.7" transform="translate(418.49 298.23) rotate(180)" style="fill:#ebebeb"></rect><rect x="178.58" y="136.77" width="5.75" height="24.7" transform="translate(362.92 298.23) rotate(180)" style="fill:#ebebeb"></rect><rect x="144.9" y="136.46" width="5.75" height="24.7" transform="translate(268.13 320.55) rotate(-170.22)" style="fill:#ebebeb"></rect><rect x="199.25" y="140.02" width="5.75" height="21.45" transform="translate(404.25 301.49) rotate(180)" style="fill:#ebebeb"></rect><rect x="186.04" y="140.02" width="5.75" height="21.45" transform="translate(377.83 301.49) rotate(180)" style="fill:#ebebeb"></rect><rect x="152.7" y="140.02" width="5.75" height="21.45" transform="translate(311.15 301.49) rotate(180)" style="fill:#ebebeb"></rect><rect x="168.64" y="139.65" width="5.75" height="21.45" transform="translate(306.33 334.38) rotate(-167.47)" style="fill:#ebebeb"></rect><rect x="194.28" y="135.54" width="2.87" height="25.93" transform="translate(391.44 297.01) rotate(180)" style="fill:#ebebeb"></rect><rect x="160.1" y="135.54" width="2.87" height="25.93" transform="translate(323.08 297.01) rotate(180)" style="fill:#ebebeb"></rect><rect x="111.61" y="141.86" width="28" height="19.33" style="fill:#ebebeb"></rect><rect x="212.19" y="149.78" width="23.46" height="14.43" style="fill:#ebebeb"></rect><rect x="218.44" y="137.09" width="11.73" height="14.43" style="fill:#ebebeb"></rect></g><g id="freepik--Shadow--inject-44"><ellipse id="freepik--path--inject-44" cx="250" cy="416.24" rx="193.89" ry="11.32" style="fill:#f5f5f5"></ellipse></g><g id="freepik--Dictionary--inject-44"><path d="M386.77,188.87V402.74s-18.48,12.94-123.23,2.85h-.06c-16.38-1.45-22.42,1.07-22.42,1.07h-7.52a11.55,11.55,0,0,0-.84-1.61,21.72,21.72,0,0,1-8.12,1.61c-7.34,0-14.71,0-14.71-6.19,0-.59,1.71-6.52,4.58-15.9,7.7-25.14,23.77-75.12,37.86-114,8.52-23.51,16.32-43,21.1-50.45a45.18,45.18,0,0,1,15.25-14.16c11.78-7,25.91-10.19,34.87-11.56,5.41-.84,8.94-1,8.94-1s37.58,1.32,52.69-3.88h0C385.74,189.29,386.27,189.08,386.77,188.87Z" style="fill:#7E57C2"></path><path d="M385.17,189.48l-.51,212.9c-32.17,11.08-83.21.53-106.9-2.34s-36.57,1.3-36.57,1.3l-4.83-.87-2.55-47.73,18.5-82.19,12.79-56.79,23.56-7.82,34.87-11.56c5.41-.84,8.94-1,8.94-1s37.58,1.32,52.69-3.88Z" style="opacity:0.2"></path><path d="M236.36,400.47c0,2.7-2.82,6.19-2.82,6.19a11.55,11.55,0,0,0-.84-1.61,21.72,21.72,0,0,1-8.12,1.61c-7.34,0-14.71,0-14.71-6.19,0-.59,1.71-6.52,4.58-15.9a15,15,0,0,1,6.43-4.41C228.53,377.71,236.31,397.77,236.36,400.47Z" style="opacity:0.2"></path><path d="M209.86,186.21V400.47c7.47-10,19-10,26.49,0V186.21C228.89,176.22,217.33,176.22,209.86,186.21Z" style="fill:#7E57C2"></path><path d="M236.36,186.21V400.47c-5.08-6.79-12-9-18.31-6.54a18.85,18.85,0,0,0-8.18,6.54V186.21a19.47,19.47,0,0,1,7-6C223.45,177,231,179,236.36,186.21Z" style="fill:#fff;opacity:0.8"></path><g style="opacity:0.2"><path d="M211.11,326.4v1a22.37,22.37,0,0,1,3.47-3.13v-1A22.37,22.37,0,0,0,211.11,326.4Z"></path><path d="M215.65,323.57a14.48,14.48,0,0,1,6.73-2.18v-1a14.48,14.48,0,0,0-6.73,2.18Z"></path><path d="M225.09,321.52a15.38,15.38,0,0,1,7.11,3.18v-1a15.38,15.38,0,0,0-7.11-3.18Z"></path><path d="M218,325.72a18.55,18.55,0,0,0-6.49,4.57v1a18.55,18.55,0,0,1,6.49-4.57Z"></path><path d="M229,326.07a13.43,13.43,0,0,0-9.61-.81v1a13.43,13.43,0,0,1,9.61.81C229,326.74,229,326.41,229,326.07Z"></path><path d="M216.44,331.83v-1a21.4,21.4,0,0,0-6.58,5.77v1A21.26,21.26,0,0,1,216.44,331.83Z"></path><path d="M217.74,330.2v1a13.34,13.34,0,0,1,8.08-.84v-1A13.35,13.35,0,0,0,217.74,330.2Z"></path><path d="M228.08,331.54a16.55,16.55,0,0,1,4.12,2.37v-2a16.55,16.55,0,0,0-4.12-2.37Z"></path><path d="M222.69,333.44a15.79,15.79,0,0,0-10.34,4.75v1a15.79,15.79,0,0,1,10.34-4.75Z"></path><path d="M231.25,336.07a14.88,14.88,0,0,0-6.8-2.57v1a14.88,14.88,0,0,1,6.8,2.57Z"></path><path d="M219.06,339.92v-2a19.39,19.39,0,0,0-9.2,6.9v2A19.39,19.39,0,0,1,219.06,339.92Z"></path><path d="M230.18,339.76a13.77,13.77,0,0,0-9-1.83v1a13.76,13.76,0,0,1,9,1.83Z"></path><path d="M211.2,348.08c-.46.5-.9,1-1.34,1.59v1c.44-.56.88-1.09,1.34-1.59Z"></path><path d="M214.39,346.19a16.11,16.11,0,0,1,5-2.51v-1a16.11,16.11,0,0,0-5,2.51Z"></path><path d="M214.21,290.11v-1a23.18,23.18,0,0,0-4.35,4.34v1A23.48,23.48,0,0,1,214.21,290.11Z"></path><path d="M211.55,288.13a18.65,18.65,0,0,1,6.49-4.56v-1a18.65,18.65,0,0,0-6.49,4.56Z"></path><path d="M229,282.92a13.43,13.43,0,0,0-9.61-.81v1a13.43,13.43,0,0,1,9.61.81C229,283.58,229,283.25,229,282.92Z"></path><path d="M216.44,280v-1a21.3,21.3,0,0,0-6.58,5.78v1A21.3,21.3,0,0,1,216.44,280Z"></path><path d="M217.74,278.34v1a13.34,13.34,0,0,1,8.08-.84v-1A13.34,13.34,0,0,0,217.74,278.34Z"></path><path d="M228.08,279.67A16.86,16.86,0,0,1,232.2,282v-2a16.86,16.86,0,0,0-4.12-2.37Z"></path><path d="M222.69,272.86a15.8,15.8,0,0,0-10.34,4.76v1a15.8,15.8,0,0,1,10.34-4.76Z"></path><path d="M225.49,274.07a15.72,15.72,0,0,1,6.71,3.12v-1a15.72,15.72,0,0,0-6.71-3.12Z"></path><path d="M219.06,270.64v-2a19.36,19.36,0,0,0-9.2,6.89v2A19.36,19.36,0,0,1,219.06,270.64Z"></path><path d="M223.4,269.51a14.87,14.87,0,0,1,8.8,3.32v-1a14.87,14.87,0,0,0-8.8-3.32Z"></path><path d="M224.74,264.25c-4.26-.55-8.6,1.07-12.29,4.56v1c3.69-3.49,8-5.11,12.29-4.56Z"></path><path d="M227.26,266.31A16.35,16.35,0,0,1,232.2,269v-2a16.35,16.35,0,0,0-4.94-2.67Z"></path><path d="M211.2,270.09c-.46.5-.9,1-1.34,1.58v1c.44-.55.88-1.08,1.34-1.58Z"></path><path d="M214.58,296.16v-1a22.37,22.37,0,0,0-3.47,3.13v1A22.37,22.37,0,0,1,214.58,296.16Z"></path><path d="M215.65,295.46a14.48,14.48,0,0,1,6.73-2.18v-1a14.48,14.48,0,0,0-6.73,2.18Z"></path><path d="M225.09,293.41a15.38,15.38,0,0,1,7.11,3.18v-1a15.38,15.38,0,0,0-7.11-3.18Z"></path><path d="M218,297.61a18.55,18.55,0,0,0-6.49,4.57v1a18.55,18.55,0,0,1,6.49-4.57Z"></path><path d="M229,298a13.43,13.43,0,0,0-9.61-.81v1A13.43,13.43,0,0,1,229,299C229,298.63,229,298.29,229,298Z"></path><path d="M216.44,303.72v-1a21.26,21.26,0,0,0-6.58,5.77v1A21.26,21.26,0,0,1,216.44,303.72Z"></path><path d="M217.74,302.09v1a13.34,13.34,0,0,1,8.08-.84v-1A13.34,13.34,0,0,0,217.74,302.09Z"></path><path d="M228.08,303.43a16.55,16.55,0,0,1,4.12,2.37v-2a16.55,16.55,0,0,0-4.12-2.37Z"></path><path d="M222.69,305.33a15.79,15.79,0,0,0-10.34,4.75v1a15.79,15.79,0,0,1,10.34-4.75Z"></path><path d="M231.25,308a14.88,14.88,0,0,0-6.8-2.57v1a14.88,14.88,0,0,1,6.8,2.57Z"></path><path d="M219.06,311.81v-2a19.43,19.43,0,0,0-9.2,6.89v2A19.43,19.43,0,0,1,219.06,311.81Z"></path><path d="M230.18,311.65a13.77,13.77,0,0,0-9-1.83v1a13.76,13.76,0,0,1,9,1.83Z"></path><path d="M211.2,320c-.46.5-.9,1-1.34,1.59v1c.44-.56.88-1.09,1.34-1.59Z"></path><path d="M214.39,318.08a16.11,16.11,0,0,1,5-2.51v-1a16.11,16.11,0,0,0-5,2.51Z"></path><path d="M225.8,203.37a15.78,15.78,0,0,1,6.4,3v-2a15.71,15.71,0,0,0-6.4-3Z"></path><path d="M219.57,203.08a13.32,13.32,0,0,1,4-.48c0-.33,0-.67,0-1a13.32,13.32,0,0,0-4,.48Z"></path><path d="M212.08,207.62a18,18,0,0,1,6.36-4.18v-1a18,18,0,0,0-6.36,4.18Z"></path><path d="M223.73,198.25a15,15,0,0,1,8.47,3.32v-1a15,15,0,0,0-8.47-3.32Z"></path><path d="M223,197.24a14.18,14.18,0,0,0-7,2v1a14.2,14.2,0,0,1,7-2Z"></path><path d="M214.77,201v-1a23.07,23.07,0,0,0-4.91,4.75v1A23.07,23.07,0,0,1,214.77,201Z"></path><path d="M229.48,194.47v1a17.82,17.82,0,0,1,2.72,1.74v-1A17.82,17.82,0,0,0,229.48,194.47Z"></path><path d="M228,194.8v-1a13.39,13.39,0,0,0-10.34.25v1A13.4,13.4,0,0,1,228,194.8Z"></path><path d="M216.33,195.69v-1a21.5,21.5,0,0,0-6.47,5.72v1A21.37,21.37,0,0,1,216.33,195.69Z"></path><path d="M225.8,259.59a15.78,15.78,0,0,1,6.4,3.05v-2a15.71,15.71,0,0,0-6.4-3.05Z"></path><path d="M219.57,259.3a13.32,13.32,0,0,1,4-.48c0-.33,0-.67,0-1a13.32,13.32,0,0,0-4,.48Z"></path><path d="M212.08,263.84a18,18,0,0,1,6.36-4.18v-1a18,18,0,0,0-6.36,4.18Z"></path><path d="M223.73,254.47a15,15,0,0,1,8.47,3.32v-1a15,15,0,0,0-8.47-3.32Z"></path><path d="M223,253.46a14.18,14.18,0,0,0-7,2v1a14.2,14.2,0,0,1,7-2Z"></path><path d="M211.72,258.84a28,28,0,0,0-1.86,2.14v1a28,28,0,0,1,1.86-2.14Z"></path><path d="M229.48,251.7a17,17,0,0,1,2.72,1.73v-1a17,17,0,0,0-2.72-1.73Z"></path><path d="M228,250a13.39,13.39,0,0,0-10.34.25v1A13.4,13.4,0,0,1,228,251Z"></path><path d="M216.33,251.91v-1a21.5,21.5,0,0,0-6.47,5.72v1A21.5,21.5,0,0,1,216.33,251.91Z"></path><path d="M224.26,245.8a15.18,15.18,0,0,1,7.94,3.28v-1a15.18,15.18,0,0,0-7.94-3.28C224.25,245.13,224.25,245.46,224.26,245.8Z"></path><path d="M222.06,244.79A16.29,16.29,0,0,0,211.81,250v1a16.29,16.29,0,0,1,10.25-5.25Z"></path><path d="M227.77,242.23a16.62,16.62,0,0,1,4.43,2.49v-1a16.62,16.62,0,0,0-4.43-2.49Z"></path><path d="M225.07,240a14,14,0,0,0-10,2.43v2a14,14,0,0,1,10-2.43Z"></path><path d="M211.22,246.31c-.47.51-.92,1-1.36,1.61v1c.44-.57.9-1.1,1.36-1.61Z"></path><path d="M223.42,237a14.89,14.89,0,0,1,8.78,3.33v-1a14.89,14.89,0,0,0-8.78-3.33Z"></path><path d="M219.84,236.45a17.65,17.65,0,0,0-8.42,5.28v1a17.65,17.65,0,0,1,8.42-5.28Z"></path><path d="M211.11,236.74a21.4,21.4,0,0,1,3.47-3.13v-1a21.4,21.4,0,0,0-3.47,3.13Z"></path><path d="M215.65,232.91a14.39,14.39,0,0,1,6.73-2.19v-1a14.39,14.39,0,0,0-6.73,2.19Z"></path><path d="M225.09,230.85A15.58,15.58,0,0,1,232.2,234v-1a15.58,15.58,0,0,0-7.11-3.18Z"></path><path d="M211.55,231.91a18.39,18.39,0,0,1,6.49-4.56v-1a18.39,18.39,0,0,0-6.49,4.56Z"></path><path d="M229,226.7a13.38,13.38,0,0,0-9.61-.81v1a13.38,13.38,0,0,1,9.61.81C229,227.36,229,227,229,226.7Z"></path><path d="M216.44,223.74v-1a21.3,21.3,0,0,0-6.58,5.78v1A21.3,21.3,0,0,1,216.44,223.74Z"></path><path d="M217.74,222.12v1a13.42,13.42,0,0,1,8.08-.85v-1A13.42,13.42,0,0,0,217.74,222.12Z"></path><path d="M228.08,223a16.86,16.86,0,0,1,4.12,2.37v-1a16.86,16.86,0,0,0-4.12-2.37Z"></path><path d="M212.35,222.4a15.8,15.8,0,0,1,10.34-4.76v-1a15.8,15.8,0,0,0-10.34,4.76Z"></path><path d="M231.25,219.28a14.77,14.77,0,0,0-6.8-2.57v1a14.77,14.77,0,0,1,6.8,2.57Z"></path><path d="M219.06,213.92v-1a19.36,19.36,0,0,0-9.2,6.89v1A19.36,19.36,0,0,1,219.06,213.92Z"></path><path d="M221.21,212.42v1a13.76,13.76,0,0,1,9,1.83v-1A13.77,13.77,0,0,0,221.21,212.42Z"></path><path d="M211.2,213.87c-.46.5-.9,1-1.34,1.58v1c.44-.55.88-1.08,1.34-1.58Z"></path><path d="M219.37,208.47a15.86,15.86,0,0,0-5,2.5v1a15.86,15.86,0,0,1,5-2.5Z"></path><path d="M211.11,354.42v1a21.87,21.87,0,0,1,3.47-3.13v-1A21.87,21.87,0,0,0,211.11,354.42Z"></path><path d="M215.65,351.59a14.26,14.26,0,0,1,6.73-2.18v-1a14.26,14.26,0,0,0-6.73,2.18Z"></path><path d="M225.09,349.54a15.46,15.46,0,0,1,7.11,3.17v-1a15.46,15.46,0,0,0-7.11-3.17Z"></path><path d="M218,353.74a18.65,18.65,0,0,0-6.49,4.56v1a18.65,18.65,0,0,1,6.49-4.56Z"></path><path d="M229,354.09a13.43,13.43,0,0,0-9.61-.81v1a13.43,13.43,0,0,1,9.61.81C229,354.76,229,354.42,229,354.09Z"></path><path d="M216.44,359.85v-1a21.26,21.26,0,0,0-6.58,5.77v1A21.26,21.26,0,0,1,216.44,359.85Z"></path><path d="M217.74,358.22v1a13.34,13.34,0,0,1,8.08-.84v-1A13.35,13.35,0,0,0,217.74,358.22Z"></path><path d="M228.08,359.55a16.91,16.91,0,0,1,4.12,2.38v-2a16.91,16.91,0,0,0-4.12-2.38Z"></path><path d="M212.35,367.21a15.79,15.79,0,0,1,10.34-4.75v-1a15.79,15.79,0,0,0-10.34,4.75Z"></path><path d="M224.45,362.52a14.88,14.88,0,0,1,6.8,2.57v-1a14.88,14.88,0,0,0-6.8-2.57Z"></path><path d="M209.86,373.33v1a19.43,19.43,0,0,1,9.2-6.89v-1A19.43,19.43,0,0,0,209.86,373.33Z"></path><path d="M230.18,367.78a13.77,13.77,0,0,0-9-1.83v1a13.76,13.76,0,0,1,9,1.83Z"></path><path d="M228.73,383.63a17.45,17.45,0,0,1,3.47,2.1v-2a17.45,17.45,0,0,0-3.47-2.1C228.74,382.3,228.74,383,228.73,383.63Z"></path></g><path d="M219.27,311.81c-2.73,49.24-3.16,71-1,82.12a19.25,19.25,0,0,0-8.37,6.54V186.21a19.81,19.81,0,0,1,7.18-6C218.29,197.66,222.16,259.63,219.27,311.81Z" style="isolation:isolate;opacity:0.1"></path><path d="M232.7,405.05a29.16,29.16,0,0,1-1-6s-11.42-4.1-16.65-1.36S210.23,408.51,232.7,405.05Z" style="isolation:isolate;opacity:0.1"></path><path d="M384.05,400.47c-49.23,21.43-98.46-21.42-147.69,0q0-107.13,0-214.26c49.23-21.42,98.46,21.43,147.69,0Z" style="fill:#7E57C2"></path><path d="M384.05,186.21V400.47c-46.34,20.17-92.67-16.61-139-3.13a68.58,68.58,0,0,0-8,2.83l-.7.3V186.21c1-.46,2.09-.88,3.13-1.27l.42-.16C288,166.8,336,207.12,384.05,186.21Z" style="fill:#fff;opacity:0.8"></path><g style="opacity:0.4"><path d="M254.39,201.76q1.17-.18,2.34-.33v5.32a10.83,10.83,0,0,1-5.22,2.53c-4.14.8-7.19-1.09-7.18-5.09a9,9,0,0,1,7.22-8.64,5.67,5.67,0,0,1,5.35,1.33l-1.56,1.73a4.1,4.1,0,0,0-3.68-.91,6,6,0,0,0-4.84,5.79c0,2.71,2,4.13,4.82,3.59a6.76,6.76,0,0,0,2.75-1.16Z"></path><path d="M269.81,198.92v8.64c0,3.7-1.92,5.29-5.49,5.4a8.39,8.39,0,0,1-4.95-1.14c.35-.63.71-1.26,1.07-1.88a6.19,6.19,0,0,0,3.75,1c2.25-.07,3.24-1.08,3.24-3.14v-.54a4.7,4.7,0,0,1-3.41,1.42c-2.92.11-5.15-1.63-5.15-4.59a5.18,5.18,0,0,1,5.15-5.24,4.16,4.16,0,0,1,3.52,1.4V198.9C268.3,198.9,269.06,198.9,269.81,198.92Zm-2.34,4.76a2.79,2.79,0,0,0-3.09-2.82,3,3,0,0,0-3.11,3,2.74,2.74,0,0,0,3.11,2.76A3,3,0,0,0,267.47,203.68Z"></path></g><g style="opacity:0.4"><path d="M257,220a74.73,74.73,0,0,0-12.7,2.64v-2A74.73,74.73,0,0,1,257,218Z"></path><path d="M268.86,218.89c-2.51,0-5,0-7.52.2v-1c2.51-.17,5-.23,7.52-.2Z"></path><path d="M284.09,220.1A130.57,130.57,0,0,0,271,218.94v-1a130.57,130.57,0,0,1,13.06,1.16Z"></path><path d="M303.27,223.58c-4.68-1-9.36-1.93-14-2.71v-1c4.68.78,9.36,1.71,14,2.71Z"></path><path d="M260.94,223.48a76.35,76.35,0,0,0-16.62,3v-1a76.35,76.35,0,0,1,16.62-3C261,222.81,261,223.14,260.94,223.48Z"></path><path d="M275.78,223.56a100.64,100.64,0,0,0-13.45-.17v-1a100.64,100.64,0,0,1,13.45.17Z"></path><path d="M296.75,226.6c-6.13-1.21-12.27-2.23-18.4-2.82v-1c6.13.59,12.27,1.61,18.4,2.82Z"></path><path d="M249.87,229.42q-2.77.6-5.55,1.43v-1q2.77-.82,5.55-1.43Z"></path><path d="M272.62,227.72a88.9,88.9,0,0,0-19.79,1.11v-1a88.9,88.9,0,0,1,19.79-1.11C272.61,227.05,272.61,227.39,272.62,227.72Z"></path><path d="M290.62,229.82c-5.15-.88-10.29-1.58-15.43-1.95v-1c5.14.37,10.28,1.07,15.43,1.95Z"></path><path d="M303.27,232.79c-2.76-.59-5.53-1.16-8.3-1.68v-2c2.77.52,5.54,1.09,8.3,1.68Z"></path><path d="M260,232.26a77,77,0,0,0-15.64,3v-1a77,77,0,0,1,15.64-3Z"></path><path d="M284.68,233.25A117.42,117.42,0,0,0,264.11,232v-1a117.42,117.42,0,0,1,20.57,1.24Z"></path><path d="M301.3,236.23c-4.43-.92-8.86-1.78-13.29-2.49v-1c4.43.71,8.86,1.57,13.29,2.49Z"></path><path d="M253.23,237.47a75.53,75.53,0,0,0-8.91,2.09v-1a75.53,75.53,0,0,1,8.91-2.09Z"></path><path d="M277.76,237.29a99.29,99.29,0,0,0-19.35,0v-2a99.29,99.29,0,0,1,19.35,0Z"></path><path d="M299.12,240.14c-5.75-1.17-11.5-2.21-17.25-2.91v-1c5.75.7,11.5,1.74,17.25,2.91Z"></path><path d="M261.54,240.86a77,77,0,0,0-17.22,3.06v-1a77,77,0,0,1,17.22-3.06Z"></path><path d="M278.35,241.21c-3.3-.32-6.59-.51-9.89-.54v-1c3.3,0,6.59.22,9.89.54Z"></path><path d="M286.26,270.3c-2.51-.38-5-.7-7.52-.94v-1c2.51.24,5,.56,7.52.94Z"></path><path d="M276.57,269.16a103.56,103.56,0,0,0-13.06-.3v-1a103.56,103.56,0,0,1,13.06.3Z"></path><path d="M258.37,269.24A75.3,75.3,0,0,0,244.32,272v-1a75.3,75.3,0,0,1,14.05-2.79Z"></path><path d="M303.27,269.11c-5.53-1.18-11.07-2.27-16.62-3.11v-1c5.54.84,11.08,1.93,16.62,3.11Z"></path><path d="M285.27,265.8a130.16,130.16,0,0,0-13.45-1.29v-1a130.16,130.16,0,0,1,13.45,1.29Z"></path><path d="M269.25,264.43a84.8,84.8,0,0,0-18.4,1.6v-1a84.8,84.8,0,0,1,18.4-1.6Z"></path><path d="M303.27,264.75q-2.76-.58-5.54-1.14v-1q2.77.56,5.54,1.14Z"></path><path d="M294.77,263a170,170,0,0,0-19.79-2.7v-1a170,170,0,0,1,19.79,2.7Z"></path><path d="M272.41,260.18a92.62,92.62,0,0,0-15.43.5v-1a92.62,92.62,0,0,1,15.43-.5Z"></path><path d="M252.63,261.83a73.67,73.67,0,0,0-8.31,2v-2a73.67,73.67,0,0,1,8.31-2Z"></path><path d="M303.27,260.4c-5.21-1.11-10.42-2.14-15.63-3v-1c5.21.82,10.42,1.85,15.63,3Z"></path><path d="M283.49,256.84a113.48,113.48,0,0,0-20.57-1v-1a113.48,113.48,0,0,1,20.57,1Z"></path><path d="M257.61,256.25A75.55,75.55,0,0,0,244.32,259v-1a75.55,75.55,0,0,1,13.29-2.71Z"></path><path d="M303.27,256q-4.44-.95-8.9-1.79v-1q4.45.84,8.9,1.79Z"></path><path d="M289.19,253.83a137.9,137.9,0,0,0-19.35-2v-2a137.9,137.9,0,0,1,19.35,2Z"></path><path d="M261.58,251.54a76.85,76.85,0,0,0-17.26,3.07v-1a76.85,76.85,0,0,1,17.26-3.07Z"></path><path d="M283.26,248.1a107.31,107.31,0,0,0-24.22-.71v-1a107.31,107.31,0,0,1,24.22.71Z"></path><path d="M254.22,248.5a75,75,0,0,0-9.9,2.25v-2a75,75,0,0,1,9.9-2.25Z"></path><path d="M303.27,251.69c-5.73-1.22-11.47-2.35-17.21-3.2v-1c5.74.85,11.48,2,17.21,3.2Z"></path><path d="M257,276.22a75.71,75.71,0,0,0-12.7,2.64v-2a75.71,75.71,0,0,1,12.7-2.64Z"></path><path d="M268.86,275.11c-2.51,0-5,0-7.52.2v-1c2.51-.17,5-.23,7.52-.2Z"></path><path d="M284.09,276.32A127.65,127.65,0,0,0,271,275.17v-1a127.65,127.65,0,0,1,13.06,1.15Z"></path><path d="M303.27,279.8c-4.68-1-9.36-1.93-14-2.7v-1c4.68.77,9.36,1.7,14,2.7Z"></path><path d="M260.94,279.7a76.35,76.35,0,0,0-16.62,3v-1a76.35,76.35,0,0,1,16.62-3C261,279,261,279.36,260.94,279.7Z"></path><path d="M275.78,279.78a100.64,100.64,0,0,0-13.45-.17v-1a100.64,100.64,0,0,1,13.45.17Z"></path><path d="M296.75,282.82c-6.13-1.21-12.27-2.23-18.4-2.82v-1c6.13.59,12.27,1.61,18.4,2.82Z"></path><path d="M249.87,285.64q-2.77.6-5.55,1.43v-1q2.77-.82,5.55-1.43Z"></path><path d="M272.62,283.94a88.9,88.9,0,0,0-19.79,1.11v-1a88.9,88.9,0,0,1,19.79-1.11C272.61,283.27,272.61,283.61,272.62,283.94Z"></path><path d="M290.62,286c-5.15-.88-10.29-1.58-15.43-1.94v-1c5.14.36,10.28,1.06,15.43,1.94Z"></path><path d="M303.27,289c-2.76-.59-5.53-1.16-8.3-1.68v-2c2.77.52,5.54,1.09,8.3,1.68Z"></path><path d="M260,288.49a76.34,76.34,0,0,0-15.64,2.94v-1A76.34,76.34,0,0,1,260,287.49Z"></path><path d="M284.68,289.47a117.42,117.42,0,0,0-20.57-1.24v-1a117.42,117.42,0,0,1,20.57,1.24Z"></path><path d="M301.3,292.45c-4.43-.92-8.86-1.78-13.29-2.49v-1c4.43.71,8.86,1.57,13.29,2.49Z"></path><path d="M253.23,293.69a73.65,73.65,0,0,0-8.91,2.1v-1a73.65,73.65,0,0,1,8.91-2.1Z"></path><path d="M277.76,293.52a98.51,98.51,0,0,0-19.35,0v-2a98.51,98.51,0,0,1,19.35,0Z"></path><path d="M299.12,296.36c-5.75-1.17-11.5-2.21-17.25-2.91v-1c5.75.7,11.5,1.74,17.25,2.91Z"></path><path d="M261.54,297.08a76.39,76.39,0,0,0-17.22,3.06v-1a76.39,76.39,0,0,1,17.22-3.06Z"></path><path d="M278.35,297.43c-3.3-.32-6.59-.51-9.89-.54v-1c3.3,0,6.59.22,9.89.54Z"></path><path d="M257,360.55a75.71,75.71,0,0,0-12.7,2.64v-2a75.71,75.71,0,0,1,12.7-2.64Z"></path><path d="M268.86,359.44c-2.51,0-5,0-7.52.2v-1c2.51-.17,5-.23,7.52-.2Z"></path><path d="M284.09,360.65A127.65,127.65,0,0,0,271,359.5v-1a127.65,127.65,0,0,1,13.06,1.15Z"></path><path d="M303.27,364.13c-4.68-1-9.36-1.93-14-2.7v-1c4.68.77,9.36,1.71,14,2.7Z"></path><path d="M260.94,364a76.35,76.35,0,0,0-16.62,3v-1a76.35,76.35,0,0,1,16.62-3C261,363.36,261,363.69,260.94,364Z"></path><path d="M275.78,364.11a100.64,100.64,0,0,0-13.45-.17v-1a100.64,100.64,0,0,1,13.45.17Z"></path><path d="M296.75,367.15c-6.13-1.2-12.27-2.22-18.4-2.81v-1c6.13.59,12.27,1.61,18.4,2.81Z"></path><path d="M249.87,370q-2.77.6-5.55,1.44v-1q2.77-.84,5.55-1.44Z"></path><path d="M272.62,368.27a88.9,88.9,0,0,0-19.79,1.11v-1a88.9,88.9,0,0,1,19.79-1.11C272.61,367.61,272.61,367.94,272.62,368.27Z"></path><path d="M290.62,370.37c-5.15-.88-10.29-1.58-15.43-1.94v-1c5.14.36,10.28,1.06,15.43,1.94Z"></path><path d="M303.27,372.84c-2.76-.59-5.53-1.16-8.3-1.68v-1c2.77.52,5.54,1.09,8.3,1.68Z"></path><path d="M257,304.33a75.71,75.71,0,0,0-12.7,2.64v-2a75.71,75.71,0,0,1,12.7-2.64Z"></path><path d="M268.86,303.22c-2.51,0-5,0-7.52.2v-1c2.51-.17,5-.23,7.52-.2Z"></path><path d="M284.09,304.43A127.65,127.65,0,0,0,271,303.28v-1a127.65,127.65,0,0,1,13.06,1.15Z"></path><path d="M303.27,307.91c-4.68-1-9.36-1.93-14-2.7v-1c4.68.77,9.36,1.71,14,2.7Z"></path><path d="M260.94,307.81a76.35,76.35,0,0,0-16.62,3v-1a76.35,76.35,0,0,1,16.62-3C261,307.14,261,307.47,260.94,307.81Z"></path><path d="M275.78,307.89a100.64,100.64,0,0,0-13.45-.17v-1a100.64,100.64,0,0,1,13.45.17Z"></path><path d="M296.75,310.93c-6.13-1.21-12.27-2.23-18.4-2.82v-1c6.13.59,12.27,1.61,18.4,2.82Z"></path><path d="M249.87,313.75q-2.77.6-5.55,1.43v-1q2.77-.82,5.55-1.43Z"></path><path d="M272.62,312.05a88.9,88.9,0,0,0-19.79,1.11v-1a88.9,88.9,0,0,1,19.79-1.11C272.61,311.39,272.61,311.72,272.62,312.05Z"></path><path d="M290.62,314.15c-5.15-.88-10.29-1.58-15.43-1.94v-1c5.14.36,10.28,1.06,15.43,1.94Z"></path><path d="M303.27,317.12c-2.76-.59-5.53-1.16-8.3-1.68v-2c2.77.52,5.54,1.09,8.3,1.68Z"></path><path d="M260,316.6a76.34,76.34,0,0,0-15.64,2.94v-1A76.34,76.34,0,0,1,260,315.6Z"></path><path d="M284.68,317.58a117.42,117.42,0,0,0-20.57-1.24v-1a117.42,117.42,0,0,1,20.57,1.24Z"></path><path d="M301.3,320.56c-4.43-.92-8.86-1.78-13.29-2.49v-1c4.43.71,8.86,1.57,13.29,2.49Z"></path><path d="M253.23,321.8a73.65,73.65,0,0,0-8.91,2.1v-1a73.65,73.65,0,0,1,8.91-2.1Z"></path><path d="M277.76,321.63a98.51,98.51,0,0,0-19.35,0v-2a98.51,98.51,0,0,1,19.35,0Z"></path><path d="M299.12,324.47c-5.75-1.17-11.5-2.21-17.25-2.91v-1c5.75.7,11.5,1.74,17.25,2.91Z"></path><path d="M261.54,325.19a77,77,0,0,0-17.22,3.06v-1a77,77,0,0,1,17.22-3.06Z"></path><path d="M278.35,325.54c-3.3-.32-6.59-.51-9.89-.54v-1c3.3,0,6.59.22,9.89.54Z"></path><path d="M257,332.44a75.71,75.71,0,0,0-12.7,2.64v-2a75.71,75.71,0,0,1,12.7-2.64Z"></path><path d="M268.86,331.33c-2.51,0-5,0-7.52.2v-1c2.51-.17,5-.23,7.52-.2Z"></path><path d="M284.09,332.54A127.65,127.65,0,0,0,271,331.39v-1a127.65,127.65,0,0,1,13.06,1.15Z"></path><path d="M303.27,336c-4.68-1-9.36-1.93-14-2.7v-1c4.68.77,9.36,1.71,14,2.7Z"></path><path d="M260.94,335.92a76.35,76.35,0,0,0-16.62,3v-1a76.35,76.35,0,0,1,16.62-3C261,335.25,261,335.58,260.94,335.92Z"></path><path d="M275.78,336a100.64,100.64,0,0,0-13.45-.17v-1a100.64,100.64,0,0,1,13.45.17Z"></path><path d="M296.75,339c-6.13-1.21-12.27-2.22-18.4-2.81v-1c6.13.59,12.27,1.6,18.4,2.81Z"></path><path d="M249.87,341.86q-2.77.6-5.55,1.44v-1q2.77-.84,5.55-1.44Z"></path><path d="M272.62,340.16a88.9,88.9,0,0,0-19.79,1.11v-1a88.9,88.9,0,0,1,19.79-1.11C272.61,339.5,272.61,339.83,272.62,340.16Z"></path><path d="M290.62,342.26c-5.15-.88-10.29-1.58-15.43-1.94v-1c5.14.36,10.28,1.06,15.43,1.94Z"></path><path d="M303.27,345.23c-2.76-.59-5.53-1.16-8.3-1.68v-2c2.77.52,5.54,1.09,8.3,1.68Z"></path><path d="M260,344.71a76.34,76.34,0,0,0-15.64,2.94v-1A76.34,76.34,0,0,1,260,343.71Z"></path><path d="M284.68,345.69a116.46,116.46,0,0,0-20.57-1.23v-1a116.46,116.46,0,0,1,20.57,1.23Z"></path><path d="M301.3,348.67c-4.43-.92-8.86-1.78-13.29-2.49v-1c4.43.71,8.86,1.57,13.29,2.49Z"></path><path d="M253.23,349.91a73.65,73.65,0,0,0-8.91,2.1v-1a73.65,73.65,0,0,1,8.91-2.1Z"></path><path d="M277.76,349.74a99.29,99.29,0,0,0-19.35,0v-2a99.29,99.29,0,0,1,19.35,0Z"></path><path d="M299.12,352.58c-5.75-1.17-11.5-2.21-17.25-2.9v-1c5.75.69,11.5,1.73,17.25,2.9Z"></path><path d="M261.54,353.3a77,77,0,0,0-17.22,3.06v-1a77,77,0,0,1,17.22-3.06Z"></path><path d="M278.35,353.65c-3.3-.32-6.59-.51-9.89-.54v-1c3.3,0,6.59.22,9.89.54Z"></path></g><g style="opacity:0.4"><path d="M328.54,333.14c-4.23-.75-8.46-1.62-12.69-2.53v-2c4.23.91,8.46,1.78,12.69,2.53Z"></path><path d="M340.38,334.36c-2.51-.27-5-.61-7.52-1v-1c2.51.39,5,.73,7.52,1Z"></path><path d="M355.61,335a107.64,107.64,0,0,1-13.06-.46v-1a107.64,107.64,0,0,0,13.06.46Z"></path><path d="M374.79,332.19a76,76,0,0,1-14,2.55v-1a76,76,0,0,0,14-2.55Z"></path><path d="M332.47,337.65c-5.54-.87-11.08-2-16.62-3.18v-1c5.54,1.18,11.07,2.31,16.62,3.18Z"></path><path d="M347.3,339.28c-4.48-.23-9-.74-13.45-1.41v-1c4.48.67,9,1.18,13.45,1.41Z"></path><path d="M368.27,338.07a86.4,86.4,0,0,1-18.4,1.32v-1a86.4,86.4,0,0,0,18.4-1.32Z"></path><path d="M321.39,340c-1.85-.37-3.7-.76-5.54-1.15v-1c1.84.39,3.69.78,5.54,1.15Z"></path><path d="M344.14,343.43a179.16,179.16,0,0,1-19.78-2.86c0-.33,0-.67,0-1a179.16,179.16,0,0,0,19.78,2.86Z"></path><path d="M362.14,343.32a94.71,94.71,0,0,1-15.43.29v-1a94.71,94.71,0,0,0,15.43-.29Z"></path><path d="M374.79,341.41a74.28,74.28,0,0,1-8.3,1.83v-2a74.28,74.28,0,0,0,8.3-1.83Z"></path><path d="M331.48,346.2c-5.21-.85-10.42-1.91-15.63-3v-1c5.21,1.11,10.42,2.17,15.63,3Z"></path><path d="M356.2,348.09a118.41,118.41,0,0,1-20.57-1.25v-1a118.41,118.41,0,0,0,20.57,1.25Z"></path><path d="M372.82,345.79a77.5,77.5,0,0,1-13.29,2.11v-1a77.5,77.5,0,0,0,13.29-2.11Z"></path><path d="M324.75,349.36c-3-.57-5.94-1.19-8.9-1.82v-1c3,.63,5.93,1.25,8.9,1.82Z"></path><path d="M349.28,352.94a146.26,146.26,0,0,1-19.35-2.14v-2a146.26,146.26,0,0,0,19.35,2.14Z"></path><path d="M370.64,350.66a82.25,82.25,0,0,1-17.25,1.84v-1a82.25,82.25,0,0,0,17.25-1.84Z"></path><path d="M333.06,355.17c-5.74-.89-11.48-2.05-17.21-3.28v-1c5.73,1.23,11.47,2.39,17.21,3.28Z"></path><path d="M349.87,356.81c-3.29-.09-6.59-.35-9.89-.71v-1c3.3.36,6.6.62,9.89.71Z"></path><path d="M323.36,297.22c-2.5-.49-5-1-7.51-1.55v-1c2.5.54,5,1.06,7.51,1.55Z"></path><path d="M339.6,299.83c-4.35-.49-8.7-1.19-13.06-2v-1c4.36.81,8.71,1.51,13.06,2Z"></path><path d="M332.47,294.5c-5.54-.88-11.08-2-16.62-3.18v-1c5.54,1.18,11.07,2.3,16.62,3.18Z"></path><path d="M347.3,296.13c-4.48-.24-9-.74-13.45-1.42v-1c4.48.68,9,1.18,13.45,1.42Z"></path><path d="M368.27,294.92a87.06,87.06,0,0,1-18.4,1.32v-1a87.06,87.06,0,0,0,18.4-1.32Z"></path><path d="M321.39,288.12,315.85,287v-1l5.54,1.16Z"></path><path d="M344.14,291.56a179.12,179.12,0,0,1-19.78-2.85c0-.34,0-.67,0-1a179.12,179.12,0,0,0,19.78,2.85Z"></path><path d="M362.14,291.45a94.71,94.71,0,0,1-15.43.29v-1a94.71,94.71,0,0,0,15.43-.29Z"></path><path d="M374.79,289.54a74.28,74.28,0,0,1-8.3,1.83v-2a74.28,74.28,0,0,0,8.3-1.83Z"></path><path d="M331.48,285.63c-5.21-.85-10.42-1.91-15.63-3v-1c5.21,1.12,10.42,2.18,15.63,3Z"></path><path d="M356.2,287.51a118.41,118.41,0,0,1-20.57-1.25v-1a118.41,118.41,0,0,0,20.57,1.25Z"></path><path d="M374.79,284.68a75.45,75.45,0,0,1-13.28,2.48v-1a75.45,75.45,0,0,0,13.28-2.48Z"></path><path d="M324.75,280.07c-3-.57-5.94-1.19-8.9-1.82v-1c3,.63,5.93,1.25,8.9,1.82Z"></path><path d="M349.28,283.65a143,143,0,0,1-19.35-2.14v-2a143,143,0,0,0,19.35,2.14Z"></path><path d="M374.79,280.33a78.31,78.31,0,0,1-17.25,2.77v-1a78.31,78.31,0,0,0,17.25-2.77Z"></path><path d="M360.08,278.57a111.06,111.06,0,0,1-24.22-1v-1a111.06,111.06,0,0,0,24.22,1Z"></path><path d="M374.79,276.47a73.73,73.73,0,0,1-9.89,2.07v-2a73.73,73.73,0,0,0,9.89-2.07Z"></path><path d="M333.06,277.17c-5.74-.89-11.48-2.05-17.21-3.28v-1c5.73,1.23,11.47,2.39,17.21,3.28Z"></path><path d="M328.54,305c-4.23-.75-8.46-1.62-12.69-2.53v-2c4.23.91,8.46,1.78,12.69,2.53Z"></path><path d="M340.38,306.25c-2.51-.27-5-.61-7.52-1v-1c2.51.39,5,.73,7.52,1Z"></path><path d="M355.61,306.93a107.64,107.64,0,0,1-13.06-.46v-1a107.64,107.64,0,0,0,13.06.46Z"></path><path d="M374.79,304.08a76.81,76.81,0,0,1-14,2.55v-1a76,76,0,0,0,14-2.55Z"></path><path d="M332.47,309.54c-5.54-.87-11.08-2-16.62-3.18v-1c5.54,1.18,11.07,2.31,16.62,3.18Z"></path><path d="M347.3,311.17c-4.48-.23-9-.74-13.45-1.41v-1c4.48.67,9,1.18,13.45,1.41Z"></path><path d="M368.27,310a86.4,86.4,0,0,1-18.4,1.32v-1a86.4,86.4,0,0,0,18.4-1.32Z"></path><path d="M321.39,311.87q-2.77-.56-5.54-1.16v-1q2.76.6,5.54,1.16Z"></path><path d="M344.14,315.32a179.16,179.16,0,0,1-19.78-2.86c0-.33,0-.67,0-1a179.16,179.16,0,0,0,19.78,2.86Z"></path><path d="M362.14,315.21a94.71,94.71,0,0,1-15.43.29v-1a94.71,94.71,0,0,0,15.43-.29Z"></path><path d="M374.79,313.3a74.28,74.28,0,0,1-8.3,1.83v-2a74.28,74.28,0,0,0,8.3-1.83Z"></path><path d="M331.48,318.09c-5.21-.85-10.42-1.91-15.63-3v-1c5.21,1.11,10.42,2.17,15.63,3Z"></path><path d="M356.2,320a118.41,118.41,0,0,1-20.57-1.25v-1A118.41,118.41,0,0,0,356.2,319Z"></path><path d="M372.82,317.68a77.5,77.5,0,0,1-13.29,2.11v-1a77.5,77.5,0,0,0,13.29-2.11Z"></path><path d="M324.75,321.25c-3-.57-5.94-1.19-8.9-1.82v-1c3,.63,5.93,1.25,8.9,1.82Z"></path><path d="M349.28,324.83a146.26,146.26,0,0,1-19.35-2.14v-2a146.26,146.26,0,0,0,19.35,2.14Z"></path><path d="M370.64,322.55a82.25,82.25,0,0,1-17.25,1.84v-1a82.25,82.25,0,0,0,17.25-1.84Z"></path><path d="M333.06,327.06c-5.74-.89-11.48-2.05-17.21-3.28v-1c5.73,1.23,11.47,2.39,17.21,3.28Z"></path><path d="M349.87,328.7c-3.29-.09-6.59-.35-9.89-.71v-1c3.3.36,6.6.62,9.89.71Z"></path><path d="M374.79,213.92a76.66,76.66,0,0,1-12.69,2.42v-2a76.66,76.66,0,0,0,12.69-2.42Z"></path><path d="M357.78,216.17c-2.51.14-5,.17-7.52.1v-1c2.51.07,5,0,7.52-.1Z"></path><path d="M348.09,216.19c-4.35-.2-8.71-.65-13.06-1.28v-1c4.35.63,8.71,1.08,13.06,1.28Z"></path><path d="M329.89,214.1c-4.68-.8-9.36-1.76-14-2.76v-1c4.68,1,9.36,2,14,2.76Z"></path><path d="M374.79,209.06a76.72,76.72,0,0,1-16.61,2.74v-1a76.72,76.72,0,0,0,16.61-2.74Z"></path><path d="M356.79,211.87a104.18,104.18,0,0,1-13.45-.35v-1a104.18,104.18,0,0,0,13.45.35Z"></path><path d="M340.77,211.28a240.05,240.05,0,0,1-24.92-4.3v-1a240.05,240.05,0,0,0,24.92,4.3Z"></path><path d="M374.79,204.71q-2.76.78-5.54,1.33v-1q2.78-.56,5.54-1.33Z"></path><path d="M366.29,206.57a91.1,91.1,0,0,1-19.78.83v-1a91.1,91.1,0,0,0,19.78-.83Z"></path><path d="M343.93,207.22c-5.14-.42-10.28-1.16-15.43-2.07v-1c5.15.91,10.29,1.65,15.43,2.07Z"></path><path d="M324.15,204.34c-2.77-.54-5.54-1.12-8.3-1.71v-1c2.76.59,5.53,1.17,8.3,1.71Z"></path><path d="M374.79,270.14a76.66,76.66,0,0,1-12.69,2.42v-2a76.66,76.66,0,0,0,12.69-2.42Z"></path><path d="M357.78,272.4c-2.51.13-5,.16-7.52.09v-1c2.51.07,5,0,7.52-.09Z"></path><path d="M348.09,272.41c-4.35-.2-8.71-.65-13.06-1.28v-1c4.35.63,8.71,1.08,13.06,1.28Z"></path><path d="M329.89,270.32c-4.68-.8-9.36-1.76-14-2.76v-1c4.68,1,9.36,2,14,2.76Z"></path><path d="M374.79,265.29A77.31,77.31,0,0,1,358.18,268v-1a77.31,77.31,0,0,0,16.61-2.73Z"></path><path d="M356.79,268.09a104.18,104.18,0,0,1-13.45-.35v-1a104.18,104.18,0,0,0,13.45.35Z"></path><path d="M334.24,266.66c-6.13-.91-12.26-2.14-18.39-3.46v-1c6.13,1.32,12.26,2.55,18.39,3.46Z"></path><path d="M374.79,260.93q-2.76.78-5.54,1.33v-1q2.78-.56,5.54-1.33Z"></path><path d="M366.29,262.79a91.1,91.1,0,0,1-19.78.83v-1a91.1,91.1,0,0,0,19.78-.83Z"></path><path d="M343.93,263.44c-5.14-.42-10.28-1.16-15.43-2.07v-1c5.15.91,10.29,1.65,15.43,2.07Z"></path><path d="M324.15,261.06c-2.77-.54-5.54-1.12-8.3-1.71v-2c2.76.59,5.53,1.17,8.3,1.71Z"></path><path d="M374.79,256.57a76.8,76.8,0,0,1-15.63,2.67v-1a76.8,76.8,0,0,0,15.63-2.67Z"></path><path d="M355,259.43A121.67,121.67,0,0,1,334.44,258v-1A121.67,121.67,0,0,0,355,258.43Z"></path><path d="M329.13,257.12c-4.43-.77-8.86-1.68-13.28-2.63v-1c4.43.95,8.85,1.86,13.28,2.63Z"></path><path d="M374.79,252.22a72.15,72.15,0,0,1-8.9,1.92v-1a72.15,72.15,0,0,0,8.9-1.92Z"></path><path d="M360.71,255.27a103.41,103.41,0,0,1-19.35-.28v-2a103.41,103.41,0,0,0,19.35.28Z"></path><path d="M333.1,253.42c-5.75-.89-11.5-2-17.25-3.28v-1c5.75,1.23,11.5,2.39,17.25,3.28Z"></path><path d="M374.79,247.86a77.86,77.86,0,0,1-17.21,2.77v-1a77.86,77.86,0,0,0,17.21-2.77Z"></path><path d="M325.74,247.79c-3.3-.62-6.6-1.3-9.89-2v-1c3.29.71,6.59,1.39,9.89,2Z"></path><path d="M350.78,250.73a133.3,133.3,0,0,1-17.21-1.59v-1a133.3,133.3,0,0,0,17.21,1.59Z"></path><path d="M328.54,242c-4.23-.75-8.46-1.61-12.69-2.52v-1c4.23.91,8.46,1.77,12.69,2.52Z"></path><path d="M340.38,243.7c-2.51-.27-5-.61-7.52-1v-1c2.51.39,5,.73,7.52,1Z"></path><path d="M355.61,244.37a107.63,107.63,0,0,1-13.06-.45v-1a107.63,107.63,0,0,0,13.06.45Z"></path><path d="M374.79,241.53a75.94,75.94,0,0,1-14,2.54v-1a75.94,75.94,0,0,0,14-2.54Z"></path><path d="M332.47,238.28c-5.54-.88-11.08-2-16.62-3.19v-1c5.54,1.19,11.07,2.31,16.62,3.19Z"></path><path d="M347.3,239.91c-4.48-.24-9-.74-13.45-1.42v-1c4.48.68,9,1.18,13.45,1.42Z"></path><path d="M368.27,238.7a86.39,86.39,0,0,1-18.4,1.31v-1a86.39,86.39,0,0,0,18.4-1.31Z"></path><path d="M321.39,231.9l-5.54-1.16v-1l5.54,1.16Z"></path><path d="M344.14,235.34a179.12,179.12,0,0,1-19.78-2.85c0-.34,0-.67,0-1a179.12,179.12,0,0,0,19.78,2.85Z"></path><path d="M362.14,235.23a94.71,94.71,0,0,1-15.43.29v-1a94.71,94.71,0,0,0,15.43-.29Z"></path><path d="M374.79,232.82a74.28,74.28,0,0,1-8.3,1.83v-1a74.28,74.28,0,0,0,8.3-1.83Z"></path><path d="M331.48,229.41c-5.21-.85-10.42-1.91-15.63-3v-1c5.21,1.12,10.42,2.18,15.63,3Z"></path><path d="M356.2,231.29A118.41,118.41,0,0,1,335.63,230v-1a118.41,118.41,0,0,0,20.57,1.25Z"></path><path d="M372.82,229a77.53,77.53,0,0,1-13.29,2.12v-1A77.53,77.53,0,0,0,372.82,228Z"></path><path d="M324.75,223.85c-3-.57-5.94-1.19-8.9-1.82v-1c3,.63,5.93,1.25,8.9,1.82Z"></path><path d="M349.28,226.93a143,143,0,0,1-19.35-2.14v-1a143,143,0,0,0,19.35,2.14Z"></path><path d="M370.64,225.15A82.25,82.25,0,0,1,353.39,227v-1a82.25,82.25,0,0,0,17.25-1.84Z"></path><path d="M333.06,221c-5.74-.89-11.48-2-17.21-3.28v-1c5.73,1.23,11.47,2.39,17.21,3.28Z"></path><path d="M349.87,222.59c-3.29-.09-6.59-.34-9.89-.71v-1c3.3.37,6.6.62,9.89.71Z"></path><path d="M328.54,361.16c-4.23-.75-8.46-1.62-12.69-2.53v-2c4.23.91,8.46,1.78,12.69,2.53Z"></path><path d="M340.38,362.38c-2.51-.27-5-.61-7.52-1v-1c2.51.39,5,.73,7.52,1Z"></path><path d="M355.61,363.06a109.71,109.71,0,0,1-13.06-.46v-1a109.71,109.71,0,0,0,13.06.46Z"></path><path d="M374.79,360.21a76.81,76.81,0,0,1-14,2.55v-1a76.81,76.81,0,0,0,14-2.55Z"></path><path d="M332.47,365.67c-5.54-.88-11.08-2-16.62-3.18v-1c5.54,1.18,11.07,2.3,16.62,3.18Z"></path><path d="M347.3,367.3c-4.48-.24-9-.74-13.45-1.42v-1c4.48.68,9,1.18,13.45,1.42Z"></path><path d="M368.27,366.09a86.4,86.4,0,0,1-18.4,1.32v-1a86.4,86.4,0,0,0,18.4-1.32Z"></path><path d="M321.39,368q-2.77-.56-5.54-1.16v-1q2.76.6,5.54,1.16Z"></path><path d="M344.14,371.45a179.16,179.16,0,0,1-19.78-2.86c0-.33,0-.67,0-1a179.16,179.16,0,0,0,19.78,2.86Z"></path><path d="M362.14,371.33a94.71,94.71,0,0,1-15.43.29v-1a94.71,94.71,0,0,0,15.43-.29Z"></path><path d="M374.79,369.42a72.12,72.12,0,0,1-8.3,1.83v-2a72.12,72.12,0,0,0,8.3-1.83Z"></path><path d="M331.48,374.22c-5.21-.85-10.42-1.91-15.63-3v-1c5.21,1.11,10.42,2.17,15.63,3Z"></path><path d="M356.2,376.1a116.48,116.48,0,0,1-20.57-1.25v-1a116.48,116.48,0,0,0,20.57,1.25Z"></path><path d="M372.82,373.81a77.5,77.5,0,0,1-13.29,2.11v-1a78.49,78.49,0,0,0,13.29-2.11Z"></path><path d="M324.75,377.38c-3-.57-5.94-1.19-8.9-1.83v-1c3,.64,5.93,1.26,8.9,1.83Z"></path><path d="M349.28,380.45a144.57,144.57,0,0,1-19.35-2.13v-1a144.57,144.57,0,0,0,19.35,2.13Z"></path><path d="M370.64,378.67a82.26,82.26,0,0,1-17.25,1.85v-1a82.26,82.26,0,0,0,17.25-1.85Z"></path></g><g style="opacity:0.2"><path d="M310.45,381l-.5-.11V197.6l.5.11Z"></path></g><g style="opacity:0.4"><path d="M374.79,393.23c-2.34.66-4.68,1.19-7,1.61v-2c2.34-.42,4.68-.95,7-1.61Z"></path></g><path d="M245,397.34a70.23,70.23,0,0,0-8.68,3.13V186.21c1.18-.52,2.37-1,3.55-1.43C242.45,213.89,250.81,319.88,245,397.34Z" style="isolation:isolate;opacity:0.1"></path><path d="M237.82,290.7l-.76,109.47-.7.3V186.21c1-.46,2.09-.88,3.13-1.27C240.41,202.24,243,260.91,237.82,290.7Z" style="isolation:isolate;opacity:0.1"></path><path d="M230.57,180.22s-2.19,51.19,5.85,96l2.62-1,3.66,3.14s-6.24-18.14-6.6-94.57Z" style="fill:#7E57C2"></path><path d="M230.57,180.22s-2.19,51.19,5.85,96l2.62-1,3.66,3.14s-6.24-18.14-6.6-94.57Z" style="opacity:0.2"></path></g><g id="freepik--Plant--inject-44"><path d="M394.7,390.16s-5.39-11.74.76-23.32,7.94-14.3,4-16.67-5.72,9.26-5.72,9.26-3.31-8-.58-16.38,4.44-22,.72-23.48-.72,17-3.95,23.32a54.07,54.07,0,0,1-3.16-13.74c-.45-6.73.25-17.47-2.69-20.23s-4.83-.85-1.94,14A155.42,155.42,0,0,1,385,349.83s-6.39-19.47-10.67-20-4.28,5.74-.61,11.21,10.74,15.27,11.9,20.31c0,0-7-14.66-13.32-10.16s5.49,13.34,10.75,16.54S392,390.94,392,390.94Z" style="fill:#7E57C2"></path><path d="M394.7,390.16s-5.39-11.74.76-23.32,7.94-14.3,4-16.67-5.72,9.26-5.72,9.26-3.31-8-.58-16.38,4.44-22,.72-23.48-.72,17-3.95,23.32a54.07,54.07,0,0,1-3.16-13.74c-.45-6.73.25-17.47-2.69-20.23s-4.83-.85-1.94,14A155.42,155.42,0,0,1,385,349.83s-6.39-19.47-10.67-20-4.28,5.74-.61,11.21,10.74,15.27,11.9,20.31c0,0-7-14.66-13.32-10.16s5.49,13.34,10.75,16.54S392,390.94,392,390.94Z" style="isolation:isolate;opacity:0.2"></path><path d="M390.45,395s5.24-11.82-1.05-23.31-8.1-14.18-4.21-16.61,5.83,9.17,5.83,9.17,3.21-8.05.38-16.38-4.71-22-1-23.47.92,17,4.23,23.26a54.31,54.31,0,0,0,3-13.79c.37-6.73-.46-17.46,2.45-20.26s4.82-.92,2.11,14a154.9,154.9,0,0,0-2.55,27s6.15-19.57,10.43-20.2,4.35,5.67.75,11.2S400.25,360.93,399.15,366c0,0,6.83-14.75,13.19-10.36s-5.33,13.43-10.55,16.7-8.62,23.38-8.62,23.38Z" style="fill:#7E57C2"></path><polygon points="414.62 386.55 371.32 386.55 374.83 417.53 411.12 417.53 414.62 386.55" style="fill:#263238"></polygon></g><g id="freepik--Character--inject-44"><rect x="88.97" y="359.17" width="62.48" height="27.1" transform="translate(240.42 745.45) rotate(180)" style="fill:#7E57C2"></rect><rect x="88.97" y="359.17" width="62.48" height="27.1" transform="translate(240.42 745.45) rotate(180)" style="fill:#fff;opacity:0.8"></rect><polygon points="146.44 361.82 88.97 361.82 88.97 359.17 146.38 359.17 146.44 361.82" style="isolation:isolate;opacity:0.2"></polygon><polygon points="146.44 364.14 94.59 365.24 146.44 366.35 146.44 364.14" style="isolation:isolate;opacity:0.2"></polygon><polygon points="146.44 374.16 91.53 375.08 146.44 375.86 146.44 374.16" style="isolation:isolate;opacity:0.2"></polygon><polygon points="146.44 380.02 92.02 381.12 146.44 382.22 146.44 380.02" style="isolation:isolate;opacity:0.2"></polygon><polygon points="88.97 368 141.61 369.59 88.97 370.69 88.97 368" style="isolation:isolate;opacity:0.2"></polygon><path d="M228.42,372.58a12.29,12.29,0,0,1-12.29,12.27h-130a.9.9,0,0,0-.9.91v1a.9.9,0,0,0,.9.9H216.81a15.07,15.07,0,0,0,15.07-15.18,15.32,15.32,0,0,0-15.46-14.95H86.08a.9.9,0,0,0-.9.91v1a.9.9,0,0,0,.9.9H215.77C222.54,360.28,228.43,365.82,228.42,372.58Z" style="fill:#263238"></path><path d="M228.42,372.58a12.29,12.29,0,0,1-12.29,12.27h-130a.9.9,0,0,0-.9.91v1a.9.9,0,0,0,.9.9H216.81a15.07,15.07,0,0,0,15.07-15.18,15.32,15.32,0,0,0-15.46-14.95H86.08a.9.9,0,0,0-.9.91v1a.9.9,0,0,0,.9.9H215.77C222.54,360.28,228.43,365.82,228.42,372.58Z" style="fill:#fff;opacity:0.4"></path><path d="M275.85,372.74h0a13.58,13.58,0,0,1-13.57,13.58H146.44V359.17H262.28A13.58,13.58,0,0,1,275.85,372.74Z" style="fill:#7E57C2"></path><path d="M146.44,359.17v27.15H262.28a13.58,13.58,0,0,0,0-27.15Z" style="fill:#fff;opacity:0.7000000000000001"></path><polygon points="146.44 366.35 146.44 364.14 261.9 365.06 146.44 366.35" style="isolation:isolate;opacity:0.2"></polygon><polygon points="146.44 375.86 146.44 374.16 198.28 376.01 146.44 375.86" style="isolation:isolate;opacity:0.2"></polygon><polygon points="146.44 382.22 146.44 380.02 230.01 381.29 146.44 382.22" style="isolation:isolate;opacity:0.2"></polygon><path d="M262.47,361.82a9.09,9.09,0,0,1,6,2.32,22,22,0,0,0-1.7,4.41l-115.84.9,115.57.29a14.52,14.52,0,0,0,.11,6.18l-78,1.7,78.75.91a27.67,27.67,0,0,0,2.62,5.39,13.58,13.58,0,0,0-7.71-24.75H146.44v2.65Z" style="isolation:isolate;opacity:0.2"></path><path d="M274.77,372.58a12.27,12.27,0,0,1-12.28,12.27h-118a.9.9,0,0,0-.9.91v1a.9.9,0,0,0,.9.9H263.17a15.06,15.06,0,0,0,15.06-15.18,15.31,15.31,0,0,0-15.45-14.95H144.49a.9.9,0,0,0-.9.91v1a.9.9,0,0,0,.9.9H262.13C268.9,360.28,274.78,365.82,274.77,372.58Z" style="fill:#263238"></path><polygon points="261.9 369.14 261.9 380.02 257.97 376.08 254.15 379.9 254.15 369.14 261.9 369.14" style="fill:#7E57C2"></polygon><rect x="83.16" y="389.07" width="168.64" height="27.14" transform="translate(334.96 805.29) rotate(180)" style="fill:#7E57C2"></rect><rect x="83.16" y="389.07" width="168.64" height="27.14" transform="translate(334.96 805.29) rotate(180)" style="fill:#fff;opacity:0.8"></rect><polygon points="83.16 396.25 83.16 394.04 198.62 394.96 83.16 396.25" style="isolation:isolate;opacity:0.2"></polygon><polygon points="83.16 405.76 83.16 404.06 134.99 405.91 83.16 405.76" style="isolation:isolate;opacity:0.2"></polygon><polygon points="83.16 412.12 83.16 409.92 166.73 411.19 83.16 412.12" style="isolation:isolate;opacity:0.2"></polygon><path d="M214.1,389.07l2.44,20.24-2.88-3.08a24.86,24.86,0,0,1-5.31,10,29.67,29.67,0,0,1-4.26-7.78l-78.75-.91,78-1.7a16.22,16.22,0,0,1-.38-3.35,15.32,15.32,0,0,1,.28-2.82l-115.57-.3,115.84-.9a21.67,21.67,0,0,1,1.7-4.4,9,9,0,0,0-6-2.32h-116v-2.66Z" style="isolation:isolate;opacity:0.2"></path><path d="M211.49,402.48a12.27,12.27,0,0,1-12.28,12.27h-118a.9.9,0,0,0-.9.91v1a.9.9,0,0,0,.9.9h174.3a15.06,15.06,0,0,0,15.07-15.18,15.31,15.31,0,0,0-15.45-15H81.21a.9.9,0,0,0-.9.91v1a.9.9,0,0,0,.9.9H198.85C205.61,390.18,211.5,395.72,211.49,402.48Z" style="fill:#7E57C2"></path><path d="M211.49,402.48a12.27,12.27,0,0,1-12.28,12.27h-118a.9.9,0,0,0-.9.91v1a.9.9,0,0,0,.9.9h174.3a15.06,15.06,0,0,0,15.07-15.18,15.31,15.31,0,0,0-15.45-15H81.21a.9.9,0,0,0-.9.91v1a.9.9,0,0,0,.9.9H198.85C205.61,390.18,211.5,395.72,211.49,402.48Z" style="fill:#fff;opacity:0.4"></path><path d="M211.49,402.48a12.27,12.27,0,0,1-12.28,12.27h-118a.9.9,0,0,0-.9.91v1a.9.9,0,0,0,.9.9H199.89A15.06,15.06,0,0,0,215,402.35a15.31,15.31,0,0,0-15.45-15H81.21a.9.9,0,0,0-.9.91v1a.9.9,0,0,0,.9.9H198.85C205.61,390.18,211.5,395.72,211.49,402.48Z" style="fill:#7E57C2"></path><polygon points="189.27 395.17 189.27 406.05 185.33 402.12 181.51 405.93 181.51 395.17 189.27 395.17" style="fill:#263238"></polygon><path d="M211.49,402.48a12.27,12.27,0,0,1-12.28,12.27h-118a.9.9,0,0,0-.9.91v1a.9.9,0,0,0,.9.9H199.89A15.06,15.06,0,0,0,215,402.35a15.31,15.31,0,0,0-15.45-15H81.21a.9.9,0,0,0-.9.91v1a.9.9,0,0,0,.9.9H198.85C205.61,390.18,211.5,395.72,211.49,402.48Z" style="fill:#fff;opacity:0.6000000000000001"></path><rect x="68.56" y="329.27" width="168.64" height="27.14" transform="translate(305.77 685.69) rotate(180)" style="fill:#7E57C2"></rect><rect x="68.56" y="329.27" width="168.64" height="27.14" transform="translate(305.77 685.69) rotate(180)" style="fill:#fff;opacity:0.7000000000000001"></rect><polygon points="68.56 336.45 68.56 334.24 184.03 335.16 68.56 336.45" style="isolation:isolate;opacity:0.2"></polygon><polygon points="68.56 345.96 68.56 344.26 120.4 346.11 68.56 345.96" style="isolation:isolate;opacity:0.2"></polygon><polygon points="68.56 352.32 68.56 350.12 152.14 351.39 68.56 352.32" style="isolation:isolate;opacity:0.2"></polygon><path d="M199.5,329.27,202,349.51l-2.89-3.08a24.8,24.8,0,0,1-5.31,10,29.65,29.65,0,0,1-4.25-7.79l-78.76-.9,78-1.71a15.57,15.57,0,0,1-.38-3.35,15.32,15.32,0,0,1,.27-2.82l-115.56-.3,115.83-.9a21.67,21.67,0,0,1,1.7-4.4,9,9,0,0,0-6-2.32h-116v-2.66Z" style="isolation:isolate;opacity:0.2"></path><path d="M196.9,342.68A12.27,12.27,0,0,1,184.61,355h-118a.9.9,0,0,0-.9.91v1a.9.9,0,0,0,.9.9H250.19a15.06,15.06,0,0,0,15.06-15.17,15.32,15.32,0,0,0-15.45-15H66.61a.9.9,0,0,0-.9.91v1a.9.9,0,0,0,.9.9H184.25C191,330.38,196.91,335.92,196.9,342.68Z" style="fill:#263238"></path><path d="M196.9,342.68A12.27,12.27,0,0,1,184.61,355h-118a.9.9,0,0,0-.9.91v1a.9.9,0,0,0,.9.9H250.19a15.06,15.06,0,0,0,15.06-15.17,15.32,15.32,0,0,0-15.45-15H66.61a.9.9,0,0,0-.9.91v1a.9.9,0,0,0,.9.9H184.25C191,330.38,196.91,335.92,196.9,342.68Z" style="fill:#fff;opacity:0.2"></path><path d="M196.9,342.68A12.27,12.27,0,0,1,184.61,355h-118a.9.9,0,0,0-.9.91v1a.9.9,0,0,0,.9.9H185.29a15.06,15.06,0,0,0,15.06-15.17,15.32,15.32,0,0,0-15.45-15H66.61a.9.9,0,0,0-.9.91v1a.9.9,0,0,0,.9.9H184.25C191,330.38,196.91,335.92,196.9,342.68Z" style="fill:#263238"></path><polygon points="184.03 339.24 184.03 350.12 180.09 346.18 176.27 350 176.27 339.24 184.03 339.24" style="fill:#7E57C2"></polygon><path d="M196.9,342.68A12.27,12.27,0,0,1,184.61,355h-118a.9.9,0,0,0-.9.91v1a.9.9,0,0,0,.9.9H185.29a15.06,15.06,0,0,0,15.06-15.17,15.32,15.32,0,0,0-15.45-15H66.61a.9.9,0,0,0-.9.91v1a.9.9,0,0,0,.9.9H184.25C191,330.38,196.91,335.92,196.9,342.68Z" style="fill:#fff;opacity:0.4"></path><path d="M204.3,237.8c3.7,1.11,7.46,2.33,11.11,3.47,1.79.58,3.68,1.12,5.2,1.49.22.06.31.07.45.1l.2,0h0a1.67,1.67,0,0,0,.56,0,18.24,18.24,0,0,0,2.25-.66,103.85,103.85,0,0,0,10.31-4.75c3.47-1.77,7-3.62,10.45-5.45l0,0a2.48,2.48,0,0,1,2.78,4.08c-3.08,2.67-6.23,5.16-9.55,7.52-1.65,1.18-3.34,2.32-5.1,3.42a57.66,57.66,0,0,1-5.57,3.11,23.06,23.06,0,0,1-3.36,1.33,10.85,10.85,0,0,1-2.38.45c-.26,0-.52,0-.78,0l-.54,0c-.35,0-.76,0-1-.07a56.26,56.26,0,0,1-6.42-1.14,110,110,0,0,1-11.71-3.4,5,5,0,0,1,3.07-9.5Z" style="fill:#e9b376"></path><path d="M214.09,239.55s-2,9-8.21,10.92a8.58,8.58,0,0,1-4.39.11l-3.38-8.34-3-7.32C202.05,235,214.09,239.55,214.09,239.55Z" style="fill:#7E57C2"></path><path d="M205.88,250.47a8.58,8.58,0,0,1-4.39.11l-3.38-8.34c0-.11-.42-4.42-.37-4.54S204.62,240.72,205.88,250.47Z" style="opacity:0.2"></path><path d="M172.55,208.34s-3,6-1.14,10.5c0,0-3.06,2.78-3.22,6.46,0,0-4.09,7.14-3.86,12.2s1.55-1.49,2.33-3.64,3.42-4.37,4-6.06a7.73,7.73,0,0,0,4.82-5.19s5.82-2,8.74-5.43S172.55,208.34,172.55,208.34Z" style="fill:#263238"></path><path d="M196.09,214.29c3.33-3.79,8.09-14.84-1.52-20.45-12-7-19.4.06-22.13,8s.64,15,9.28,16.06S193.79,216.91,196.09,214.29Z" style="fill:#263238"></path><path d="M264.81,386.2l-5.53,1.05s-30.2-72.39-35-72.59S170.5,337,158.22,324.48s5.48-42.55,5.48-42.55,29.52-4.21,31.74,2.45a48.08,48.08,0,0,1,1.25,6c.33,2,.57,3.76.57,3.76h0c.92-.23,30.55-7.88,42.23,0C251.36,302.14,264.81,386.2,264.81,386.2Z" style="fill:#ebb376"></path><path d="M179.42,327.48s2,0,33-1.39c0,0-5.74,53.18-8.27,82.15l6.47.37s26-75.31,25.79-85.17-11.54-12.74-11.54-12.74S202.77,323.44,179.42,327.48Z" style="fill:#ebb376"></path><path d="M179.45,327.48c.32,0,3.47,0,27.63-1.14l-.47-6.95A135.58,135.58,0,0,1,179.45,327.48Z" style="fill:#263238"></path><path d="M227.57,355.91c5.07-20.38,7.61-31,5.07-35.88a15.25,15.25,0,0,0-7.68-6.74c-6.6,10.26-27.15,13.41-27.69,13.49h0c-15.26.67-17.54.7-17.81.7a135.58,135.58,0,0,0,27.16-8.09,164.16,164.16,0,0,0,18.22-8.69s11.3,2.89,11.55,12.74c.09,4-4.21,19-9.32,35.31A27.27,27.27,0,0,1,227.57,355.91Z" style="isolation:isolate;opacity:0.2"></path><path d="M269,383.39a15.12,15.12,0,0,1-2.78-.33l-.08,0h0l-.06-.06,0-.06a.17.17,0,0,1,0-.1c0-.1.25-2.27,1.29-3a1.39,1.39,0,0,1,1.12-.24c.43.09.68.29.73.59s-.42,1.05-1,1.59a3.65,3.65,0,0,1,2-.25,1,1,0,0,1,.6.47.85.85,0,0,1,0,1A2.28,2.28,0,0,1,269,383.39Zm-2-.66c1.39.23,3.07.32,3.4-.11,0,0,.11-.15-.06-.46a.45.45,0,0,0-.31-.24C269.33,381.71,267.92,382.28,267,382.73Zm1.17-2.76a.92.92,0,0,0-.54.18,3.94,3.94,0,0,0-1,2.2c1.15-.79,2.22-1.75,2.15-2.14,0-.12-.25-.19-.38-.21Z" style="fill:#263238"></path><path d="M216.27,408.61a10.92,10.92,0,0,1-3.67-1.16h0a.1.1,0,0,1-.05,0,.16.16,0,0,1-.06-.08h0a.43.43,0,0,0,0-.05h0a.34.34,0,0,1,0-.1c0-.1.8-2.14,2-2.62a1.38,1.38,0,0,1,1.14,0q.6.3.57.75c0,.46-.66.92-1.38,1.3a3.5,3.5,0,0,1,2,.24.89.89,0,0,1,.46.6.83.83,0,0,1-.22.93A1.15,1.15,0,0,1,216.27,408.61Zm-2.86-1.3c1.29.56,2.9,1.07,3.32.73,0,0,.14-.12.06-.46a.47.47,0,0,0-.25-.31C215.91,406.89,214.4,407.1,213.41,407.31ZM215,404.9a.83.83,0,0,0-.34.07,3.84,3.84,0,0,0-1.54,1.88c1.31-.48,2.58-1.15,2.61-1.55,0-.12-.19-.24-.31-.3A.92.92,0,0,0,215,404.9Z" style="fill:#263238"></path><path d="M256.49,384.4c-.15-.7,8.55-2.22,8.55-2.22s6.56,4.09,12,4.07,3.29,3.73-2.44,5.11l-14.15,3.41C256.35,395.74,258.06,391.67,256.49,384.4Z" style="fill:#263238"></path><path d="M202.8,406.34c0-.71,8.83,0,8.83,0s5.35,5.58,10.6,6.89,2.28,4.42-3.61,4.35l-14.56-.17C199.88,417.31,202.54,413.78,202.8,406.34Z" style="fill:#263238"></path><path d="M163.7,281.93s29.52-4.21,31.74,2.45a48.08,48.08,0,0,1,1.25,6c.33,2,.57,3.76.57,3.76h0l2.47-.59L203.52,323c-16.32,5.23-37.93,9-45.3,1.53C146,312,163.7,281.93,163.7,281.93Z" style="fill:#263238"></path><path d="M197.26,294.12,180,297.71s9.54-5.27,16.7-7.35C197,292.4,197.26,294.12,197.26,294.12Z" style="isolation:isolate;opacity:0.30000000000000004"></path><polygon points="165.07 277.34 163.7 281.93 195.44 284.38 196.28 278.95 165.07 277.34" style="fill:#263238"></polygon><polygon points="165.07 277.34 163.7 281.93 195.44 284.38 196.28 278.95 165.07 277.34" style="isolation:isolate;opacity:0.2"></polygon><rect x="173.26" y="276.94" width="1.58" height="8.03" transform="translate(29.64 -16.33) rotate(5.87)" style="fill:#263238"></rect><rect x="181.72" y="278.72" width="6.97" height="5.28" transform="translate(18.43 -11.3) rotate(3.68)" style="fill:#fff"></rect><rect x="192.74" y="277.8" width="1.58" height="8.03" transform="translate(29.86 -18.33) rotate(5.87)" style="fill:#263238"></rect><polygon points="201.44 291.87 198.6 292.72 201.44 324.09 205.25 324.09 201.44 291.87" style="fill:#263238"></polygon><polygon points="201.44 291.87 198.6 292.72 201.44 324.09 205.25 324.09 201.44 291.87" style="fill:#fff;isolation:isolate;opacity:0.4"></polygon><polygon points="207.91 318.84 207.91 327.44 205.25 327.8 204.78 320.11 207.91 318.84" style="fill:#263238"></polygon><polygon points="207.91 318.84 207.91 327.44 205.25 327.8 204.78 320.11 207.91 318.84" style="fill:#fff;isolation:isolate;opacity:0.30000000000000004"></polygon><path d="M203.46,249.57c.08,6.2-4.91,19.79-7.37,30.29l-31-2.52c.65-3.32,1-8.25.53-16.28-.25-4.7-.79-10.47-1.69-17.6-.13-1.06-.27-2.14-.42-3.26a7.69,7.69,0,0,1,7.93-9c1.31,0,2.7.14,4.11.28a104.38,104.38,0,0,1,14.82,2.13c1.59.37,3.23.82,4.8,1.27C200.79,236.54,203.39,243.76,203.46,249.57Z" style="fill:#7E57C2"></path><path d="M179,215c.6,5,.93,13.92-2.63,16.65,0,0,4.62,0,13.35,7.28,3.35-3.58,1.47-5.15,1.47-5.15-5.23-2-4.82-6-3.64-9.62Z" style="fill:#ebb376"></path><path d="M182.46,218.72l5.07,5.41a15.18,15.18,0,0,0-.64,2.6c-2-.59-4.64-3.25-4.71-5.43A7.2,7.2,0,0,1,182.46,218.72Z" style="opacity:0.2"></path><path d="M177.37,204.27c-.6,7.89-1,11.22,2.37,15.78,5.11,6.87,14.94,5.88,17.88-1.67,2.66-6.8,3.2-18.56-4-22.73A10.79,10.79,0,0,0,177.37,204.27Z" style="fill:#ffb573"></path><path d="M184.53,197.31c2,2.88-3.51,11.21-7.53,12.44C169.52,206.75,178.51,188.71,184.53,197.31Z" style="fill:#263238"></path><path d="M194.11,194.22c2.83,1.46,5.21,7.08,5.44,9.15-4.34,0-15.15-5.64-15.15-5.64s-7.93,1-3.49-2.33S194.11,194.22,194.11,194.22Z" style="fill:#263238"></path><path d="M190.3,208.31c-.08.64.18,1.2.6,1.26s.82-.41.91-1-.18-1.2-.59-1.26S190.39,207.67,190.3,208.31Z" style="fill:#263238"></path><path d="M197.5,209.31c-.08.63.18,1.2.6,1.25s.82-.41.91-1-.18-1.21-.59-1.26S197.59,208.67,197.5,209.31Z" style="fill:#263238"></path><path d="M198.23,208.27l1.59-.23S198.87,209.12,198.23,208.27Z" style="fill:#263238"></path><path d="M194.39,209.91a17.2,17.2,0,0,0,1.7,4.38,2.78,2.78,0,0,1-2.33.12Z" style="fill:#ed893e"></path><path d="M190,216.42a6,6,0,0,0,.92.2.2.2,0,0,0,.22-.16.2.2,0,0,0-.16-.21,5.06,5.06,0,0,1-3.85-2.55.19.19,0,0,0-.25-.09.2.2,0,0,0-.09.25A5.3,5.3,0,0,0,190,216.42Z" style="fill:#263238"></path><path d="M174.26,211.15a5.84,5.84,0,0,0,2.54,3.62c1.72,1.07,3.15-.33,3.15-2.26,0-1.73-.9-4.37-2.86-4.66A2.6,2.6,0,0,0,174.26,211.15Z" style="fill:#ffb573"></path><path d="M186.88,206.21a.38.38,0,0,0,.42-.15c1-1.43,3.24-1.47,3.26-1.47a.38.38,0,0,0,.38-.38.39.39,0,0,0-.38-.38c-.11,0-2.67,0-3.89,1.8a.39.39,0,0,0,.1.53Z" style="fill:#263238"></path><path d="M199.39,206.05a.37.37,0,0,0,.36-.09.37.37,0,0,0,0-.53,3.76,3.76,0,0,0-3.21-1.26.38.38,0,0,0,.12.75h0a3,3,0,0,1,2.53,1A.45.45,0,0,0,199.39,206.05Z" style="fill:#263238"></path><path d="M191,207.27l1.59-.23S191.67,208.13,191,207.27Z" style="fill:#263238"></path><path d="M199.37,226.32l-.2,2.45a2.89,2.89,0,0,1-1.39,2.23l-3.71,2.21a5.35,5.35,0,0,1-4.89.3l-1-.43c.06-4.09,3.13-8.47,3.13-8.47l.74-1.35a2.39,2.39,0,0,1,3.23-1l2.68,1.43A2.73,2.73,0,0,1,199.37,226.32Z" style="fill:#ebb376"></path><path d="M243.81,232.86l5.55-6.43,4.77,5.68s-3.24,5-8.09,4Z" style="fill:#ffb573"></path><polygon points="254.99 224.24 257.54 229.33 254.13 232.11 249.36 226.43 254.99 224.24" style="fill:#ffb573"></polygon><path d="M179.79,250.81c-3.09,5.36-8.92,8.66-14.19,10.25-.25-4.7-.79-10.47-1.69-17.6,3.82-3.59,8.6-5.73,13.77-3.87C177.68,239.59,182.92,245.38,179.79,250.81Z" style="opacity:0.2"></path><path d="M173.23,236.63c.9,1.92,1.85,4,2.87,6s2,3.92,3.12,5.72c.55.89,1.11,1.76,1.67,2.53a13.88,13.88,0,0,0,1.61,1.87c.22.22.4.34.4.37a3.53,3.53,0,0,0-.75,0c-.31.07-.41.17-.38.18a1.44,1.44,0,0,0,.4-.33,9.39,9.39,0,0,0,1.31-2c.43-.85.81-1.81,1.19-2.79.74-2,1.33-4.14,1.9-6.31,1.09-4.36,2-8.93,2.78-13.42v-.07a2.48,2.48,0,0,1,4.93.34,92.09,92.09,0,0,1-.55,14.46,57.51,57.51,0,0,1-1.31,7.36,30.38,30.38,0,0,1-1.21,3.81,17.87,17.87,0,0,1-2.15,4.06,10.41,10.41,0,0,1-2.09,2.13,7.91,7.91,0,0,1-3.57,1.54,7.76,7.76,0,0,1-4.18-.54,11.31,11.31,0,0,1-2.57-1.49,20.93,20.93,0,0,1-3.25-3.17,35.51,35.51,0,0,1-2.41-3.18,72.31,72.31,0,0,1-7-13.2,5,5,0,0,1,9.13-4Z" style="fill:#e9b376"></path><path d="M171.42,231.24c-4-1-13.58,4.7-7.11,22.33,0,0,14.13-3.6,15.38-7.71S171.42,231.24,171.42,231.24Z" style="fill:#7E57C2"></path></g><g id="freepik--speech-bubble--inject-44"><path d="M161.87,195.92c-8.45-2.89-12.32-8-14-11.36l-1.25-3.41h7.63a12.4,12.4,0,0,0,.5,3.41C156.42,190.65,161.87,195.92,161.87,195.92Z" style="fill:#7E57C2"></path><path d="M166,154.46v27.06a3,3,0,0,1-3,3H147.85l-1.25-3.41-.78-2.12-10.07-24.52h-2.87v0a3,3,0,0,1,3-3H163A3,3,0,0,1,166,154.46Z" style="fill:#7E57C2"></path><rect x="142.77" y="160.72" width="16.36" height="2" style="fill:#fff"></rect><path d="M151.63,176.25a28.82,28.82,0,0,1-4.41-18.64l2,.31a27.23,27.23,0,0,0,4.1,17.23Z" style="fill:#fff"></path><path d="M155,175.57l-.33-2,.16,1-.17-1a3.88,3.88,0,0,0,2.3-1.38,2.5,2.5,0,0,0,.17-2.06,3,3,0,0,0-1.5-1.55,11.89,11.89,0,0,1-4.84,5.33c-1.62.89-4.82,2-6.47.55-1-.87-1.09-2.3-.3-4.24,1.25-3.11,4.33-4.83,8.22-4.6a12.06,12.06,0,0,1,2.28.38,10.65,10.65,0,0,0,.42-1.57l2,.32a12.93,12.93,0,0,1-.52,2,4.9,4.9,0,0,1,2.67,2.88,4.43,4.43,0,0,1-.42,3.67A5.89,5.89,0,0,1,155,175.57Zm-3.36-7.93c-1.47,0-4.56.37-5.77,3.36-.48,1.19-.42,1.82-.23,2,.49.42,2.42.16,4.18-.81a9.87,9.87,0,0,0,3.92-4.3,9.85,9.85,0,0,0-1.62-.24Z" style="fill:#fff"></path><polygon points="155.02 181.56 147.85 184.56 146.6 181.15 145.82 179.03 155.02 181.56" style="opacity:0.2"></polygon><path d="M155,181.56l-12.23-33.14H129.91a3,3,0,0,0-3,3v27.06a3,3,0,0,0,3,3Z" style="fill:#7E57C2"></path><path d="M155,181.56l-12.23-33.14H129.91a3,3,0,0,0-3,3v27.06a3,3,0,0,0,3,3Z" style="fill:#fff;isolation:isolate;opacity:0.6000000000000001"></path><path d="M144.06,172.23l-1.27-3.59h-4.95l-1.27,3.59h-2.82L139,157.37h2.57l5.28,14.86Zm-3.76-10.57L138.78,166h3.07Z" style="fill:#7E57C2"></path></g></svg>
